<?xml version="1.0" encoding="iso-8859-1"?>
<!-- Generator: Adobe Illustrator 19.0.0, SVG Export Plug-In . SVG Version: 6.00 Build 0)  -->
<svg version="1.1" id="Layer_1" xmlns="http://www.w3.org/2000/svg" xmlns:xlink="http://www.w3.org/1999/xlink" x="0px" y="0px"
	 viewBox="0 0 512 512" style="enable-background:new 0 0 512 512;" xml:space="preserve">
<g>
	<g>
		<path d="M365.977,108.752C305.238,108.752,256,157.989,256,218.729c0-60.74-49.238-109.977-109.977-109.977
			S23.827,157.989,23.827,218.729C23.827,402.023,112.562,512,207.121,512c24.439,0,24.439-24.439,48.879-24.439
			S280.439,512,304.879,512c94.559,0,183.294-109.977,183.294-293.271C488.173,157.989,426.716,108.752,365.977,108.752z"/>
	</g>
</g>
<g>
	<g>
		<path d="M258.907,84.761c-5.567-12.229-12.569-23.606-20.914-33.807c-24.307-29.708-56.969-46.069-91.97-46.069v36.659
			c31.877,0,60.002,20.728,76.426,52.097c12.547,7.693,23.86,17.211,33.55,28.197c3.745-4.246,7.741-8.265,11.947-12.055
			l0.599-0.536c18.865-16.806,42.081-28.819,67.727-34.116c18.411-19.66,29.703-46.07,29.703-75.131
			C313.915,0,270.304,36.176,258.907,84.761z"/>
	</g>
</g>
<g>
</g>
<g>
</g>
<g>
</g>
<g>
</g>
<g>
</g>
<g>
</g>
<g>
</g>
<g>
</g>
<g>
</g>
<g>
</g>
<g>
</g>
<g>
</g>
<g>
</g>
<g>
</g>
<g>
</g>
</svg>
